HIERARCHY
ROOT Hips
{
	OFFSET 0.00 0.00 0.00
	CHANNELS 6 Xposition Yposition Zposition Xrotation Yrotation Zrotation
	JOINT Spine
	{
		OFFSET 0.00000 5.19526 0.00000
		CHANNELS 3 Xrotation Yrotation Zrotation
		JOINT Head
		{
			OFFSET 0.00000 15.65388 0.00000
			CHANNELS 3 Xrotation Yrotation Zrotation
			End Site
			{
				OFFSET 0.00000 4.52755 0.00000
			}
		}
		JOINT LeftShoulder
		{
			OFFSET 0.00000 10.32977 0.00000
			CHANNELS 3 Xrotation Yrotation Zrotation
			JOINT LeftArm
			{
				OFFSET 6.99601 0.00000 0.00000
				CHANNELS 3 Xrotation Yrotation Zrotation
				JOINT LeftForeArm
				{
					OFFSET 10.20930 0.00000 0.00000
					CHANNELS 3 Yrotation Zrotation Xrotation
					JOINT LeftHand
					{
						OFFSET 8.56316 0.00000 0.00000
						CHANNELS 3 Xrotation Yrotation Zrotation
						JOINT LeftHandThumb1
						{
							OFFSET 0.00000 0.00000 0.00000
							CHANNELS 3 Xrotation Zrotation Yrotation
							End Site
							{
								OFFSET 0.00000 0.00000 3.93700
							}
						}
						End Site
						{
							OFFSET 3.93700 0.00000 0.00000
						}
					}
				}
			}
		}
		JOINT RightShoulder
		{
			OFFSET 0.00000 10.32977 0.00000
			CHANNELS 3 Xrotation Yrotation Zrotation
			JOINT RightArm
			{
				OFFSET -6.99601 0.00000 0.00000
				CHANNELS 3 Xrotation Yrotation Zrotation
				JOINT RightForeArm
				{
					OFFSET -10.20930 0.00000 0.00000
					CHANNELS 3 Yrotation Zrotation Xrotation
					JOINT RightHand
					{
						OFFSET -8.56316 0.00000 0.00000
						CHANNELS 3 Xrotation Yrotation Zrotation
						JOINT RightHandThumb1
						{
							OFFSET 0.00000 0.00000 0.00000
							CHANNELS 3 Xrotation Zrotation Yrotation
							End Site
							{
								OFFSET 0.00000 0.00000 3.93700
							}
						}
						End Site
						{
							OFFSET -3.93700 0.00000 0.00000
						}
					}
				}
			}
		}
	}
	JOINT LeftUpLeg
	{
		OFFSET 3.35136 0.00000 0.00000
		CHANNELS 3 Xrotation Yrotation Zrotation
		JOINT LeftLeg
		{
			OFFSET 0.00000 -16.34683 0.00000
			CHANNELS 3 Xrotation Yrotation Zrotation
			JOINT LeftFoot
			{
				OFFSET 0.00000 -13.95979 0.00000
				CHANNELS 3 Xrotation Yrotation Zrotation
				JOINT LeftToeBase
				{
					OFFSET 0.00000 -1.33694 4.98954
					CHANNELS 3 Xrotation Yrotation Zrotation
					End Site
					{
						OFFSET 0.00000 0.00000 2.95275
					}
				}
			}
		}
	}
	JOINT RightUpLeg
	{
		OFFSET -3.35136 0.00000 0.00000
		CHANNELS 3 Xrotation Yrotation Zrotation
		JOINT RightLeg
		{
			OFFSET 0.00000 -16.34683 0.00000
			CHANNELS 3 Xrotation Yrotation Zrotation
			JOINT RightFoot
			{
				OFFSET 0.00000 -13.95979 0.00000
				CHANNELS 3 Xrotation Yrotation Zrotation
				JOINT RightToeBase
				{
					OFFSET 0.00000 -1.33694 4.98954
					CHANNELS 3 Xrotation Yrotation Zrotation
					End Site
					{
						OFFSET 0.00000 0.00000 2.95275
					}
				}
			}
		}
	}
}
MOTION
Frames:	15
Frame Time: 0.008333
1.4987 31.9445 -6.5874 5.6835 -19.5844 -2.3355 -6.7427 4.0369 4.3039 -6.9302 30.7575 7.8684 -24.8989 -13.9943 38.2609 -92.7679 24.8880 -24.8567 -133.6134 -0.0000 -38.7732 -0.4772 -2.2631 -11.9101 32.8623 0.0000 24.3270 13.0687 -11.1997 -7.4809 -16.0817 47.2281 86.3661 16.2961 0.0000 -3.4263 1.1896 -11.1382 6.1355 33.1476 -0.0000 -26.2537 2.1607 11.3031 3.0272 -3.7160 0.0000 -0.0000 -14.4641 21.6967 -0.2166 5.2803 -0.0000 -0.0000 -3.5178 7.8116 1.1906 0.5804 -0.0000 -0.0000 -7.6402 -21.7042 16.5392 8.7183 -0.0000 -0.0000
1.5011 31.9445 -6.5852 5.7043 -19.6211 -2.3307 -6.7482 4.0516 4.2951 -6.9557 30.8828 8.0293 -25.0921 -14.0401 38.3056 -93.6340 25.0086 -24.7467 -135.2717 -0.0000 -39.1196 -0.5845 -2.7438 -12.0305 32.8623 0.0000 24.3270 13.0553 -11.1813 -7.4401 -16.0818 47.2140 86.3626 16.3452 -0.0000 -3.3976 1.1921 -11.0990 6.1697 33.1476 -0.0000 -26.2537 2.1510 11.3090 3.0227 -3.7212 0.0000 -0.0000 -14.4709 21.7287 -0.2059 5.2519 -0.0000 -0.0000 -3.5395 7.8283 1.1882 0.5784 -0.0000 -0.0000 -7.6245 -21.6855 16.5530 8.6785 -0.0000 -0.0000
1.5029 31.9440 -6.5842 5.7310 -19.6707 -2.3184 -6.7452 4.0874 4.2697 -6.9957 30.8712 8.1791 -25.3161 -14.0845 38.3672 -94.5230 25.1334 -24.6571 -136.8986 0.0000 -39.6451 -0.7006 -3.2248 -12.2633 32.8623 0.0000 24.3270 13.0458 -11.1847 -7.3752 -16.0804 47.2216 86.3450 16.4168 -0.0000 -3.4090 1.1968 -11.0653 6.2121 33.1476 -0.0000 -26.2537 2.1339 11.3332 3.0124 -3.7244 0.0000 -0.0000 -14.4851 21.7579 -0.1757 5.2922 -0.0000 -0.0000 -3.5734 7.8552 1.1843 0.5837 -0.0000 -0.0000 -7.6099 -21.6593 16.5253 8.5693 -0.0000 -0.0000
1.5051 31.9447 -6.5814 5.7468 -19.7007 -2.3115 -6.7524 4.1057 4.2521 -6.9902 30.9366 8.3365 -25.5192 -14.1404 38.4028 -95.3524 25.2238 -24.5826 -138.5117 0.0000 -40.0739 -0.7859 -3.5684 -12.4284 32.8623 0.0000 24.3270 13.0164 -11.1508 -7.3231 -16.0359 47.2042 86.3273 16.4604 0.0000 -3.4245 1.1924 -11.0700 6.1871 33.1476 -0.0000 -26.2537 2.1255 11.3316 3.0044 -3.7204 0.0000 -0.0000 -14.4859 21.7958 -0.1793 5.2583 -0.0000 -0.0000 -3.5829 7.8708 1.1776 0.5706 -0.0000 -0.0000 -7.5987 -21.6460 16.5591 8.5823 -0.0000 -0.0000
1.5074 31.9449 -6.5784 5.7631 -19.7358 -2.3069 -6.7726 4.1381 4.2452 -6.9112 31.0330 8.4467 -25.7517 -14.2108 38.3966 -96.0709 25.2129 -24.5928 -140.0906 -0.0000 -40.4923 -0.8997 -4.1197 -12.3303 32.8623 0.0000 24.3270 13.0457 -11.1226 -7.2736 -16.0459 47.1807 86.3243 16.5008 0.0000 -3.4069 1.1726 -11.0837 6.0775 33.1476 -0.0000 -26.2537 2.1241 11.3430 2.9966 -3.7312 0.0000 -0.0000 -14.4944 21.8222 -0.1504 5.2876 -0.0000 -0.0000 -3.5988 7.8817 1.1727 0.5687 -0.0000 -0.0000 -7.5758 -21.6130 16.5563 8.5380 -0.0000 -0.0000
1.5088 31.9449 -6.5751 5.7805 -19.7692 -2.3050 -6.7888 4.1498 4.2553 -6.8661 31.1321 8.5472 -26.1039 -14.3837 38.3699 -96.6583 25.2588 -24.5355 -141.6664 0.0000 -41.2226 -1.0154 -4.6904 -12.2295 32.8623 0.0000 24.3270 13.0513 -11.0933 -7.2436 -16.0855 47.1775 86.3592 16.4921 0.0000 -3.4188 1.1715 -10.9799 6.1283 33.1476 -0.0000 -26.2537 2.1254 11.3321 2.9941 -3.7461 0.0000 -0.0000 -14.4960 21.8680 -0.1352 5.2710 -0.0000 -0.0000 -3.6129 7.9008 1.1733 0.5643 -0.0000 -0.0000 -7.5721 -21.6016 16.5763 8.5904 -0.0000 -0.0000
1.5096 31.9452 -6.5728 5.7974 -19.8014 -2.3032 -6.7963 4.1821 4.2524 -6.8691 31.2380 8.6774 -26.3651 -14.4729 38.3946 -97.3983 25.3452 -24.5183 -143.2031 0.0000 -41.9247 -1.1130 -5.0627 -12.4159 32.8623 0.0000 24.3270 13.0614 -11.0923 -7.1851 -16.1401 47.1956 86.3858 16.4791 0.0000 -3.4227 1.1883 -10.9430 6.2360 33.1476 -0.0000 -26.2537 2.1178 11.3434 2.9937 -3.7491 0.0000 -0.0000 -14.4991 21.8842 -0.1271 5.2682 -0.0000 -0.0000 -3.6312 7.9164 1.1780 0.5643 -0.0000 -0.0000 -7.5579 -21.6030 16.5936 8.5740 -0.0000 -0.0000
1.5106 31.9457 -6.5696 5.8086 -19.8280 -2.2963 -6.7989 4.1960 4.2511 -6.8826 31.4300 8.7955 -26.5569 -14.4959 38.4286 -98.1816 25.4229 -24.4529 -144.6890 0.0000 -42.7596 -1.2478 -5.6183 -12.5436 32.8623 0.0000 24.3270 13.0556 -11.0949 -7.1318 -16.1894 47.2440 86.4180 16.4544 0.0000 -3.4315 1.1900 -10.9202 6.2574 33.1476 -0.0000 -26.2537 2.1141 11.3692 2.9839 -3.7460 0.0000 -0.0000 -14.5074 21.8998 -0.1301 5.2697 -0.0000 -0.0000 -3.6418 7.9585 1.1706 0.5687 -0.0000 -0.0000 -7.5516 -21.6012 16.6139 8.6039 -0.0000 -0.0000
1.5123 31.9457 -6.5667 5.8190 -19.8603 -2.2933 -6.8048 4.2242 4.2643 -6.8101 31.5643 8.8149 -26.8498 -14.6320 38.4595 -98.7999 25.5451 -24.3381 -146.1687 0.0000 -43.5356 -1.3881 -6.3018 -12.4485 32.8623 0.0000 24.3270 13.0761 -11.0691 -7.0961 -16.2385 47.2729 86.4565 16.4390 0.0000 -3.4253 1.1839 -10.9558 6.2057 33.1476 -0.0000 -26.2537 2.1167 11.3796 2.9781 -3.7520 0.0000 -0.0000 -14.5143 21.9253 -0.1161 5.2713 -0.0000 -0.0000 -3.6561 7.9713 1.1676 0.5752 -0.0000 -0.0000 -7.5417 -21.5836 16.6165 8.5441 -0.0000 -0.0000
1.5135 31.9465 -6.5645 5.8336 -19.8810 -2.2889 -6.8257 4.2258 4.2668 -6.7502 31.8071 8.9006 -26.9934 -14.5807 38.4525 -99.4536 25.4666 -24.4589 -147.6116 -0.0000 -44.0213 -1.4903 -6.7791 -12.4296 32.8623 0.0000 24.3270 13.1068 -11.0349 -7.0320 -16.2575 47.3483 86.4444 16.4369 -0.0000 -3.4551 1.1904 -10.9621 6.2359 33.1476 -0.0000 -26.2537 2.1087 11.3895 2.9732 -3.7525 0.0000 -0.0000 -14.5237 21.9390 -0.1040 5.3394 -0.0000 -0.0000 -3.6747 7.9858 1.1649 0.5871 -0.0000 -0.0000 -7.5360 -21.5693 16.6415 8.5842 -0.0000 -0.0000
1.5140 31.9461 -6.5622 5.8479 -19.9127 -2.2830 -6.8357 4.2537 4.2820 -6.6627 31.9433 8.8587 -27.2199 -14.6009 38.4276 -100.1180 25.4491 -24.4886 -148.9136 -0.0000 -44.8385 -1.6717 -7.3287 -12.8870 32.8623 0.0000 24.3270 13.1085 -11.0052 -6.9925 -16.2566 47.3905 86.4543 16.4542 0.0000 -3.4985 1.1629 -10.8858 6.1350 33.1476 -0.0000 -26.2537 2.1065 11.4147 2.9665 -3.7620 0.0000 -0.0000 -14.5202 21.9410 -0.0886 5.2635 -0.0000 -0.0000 -3.6934 8.0254 1.1644 0.5912 -0.0000 -0.0000 -7.5387 -21.5799 16.6125 8.5695 -0.0000 -0.0000
1.5151 31.9460 -6.5599 5.8584 -19.9306 -2.2750 -6.8508 4.2523 4.3094 -6.5397 32.1456 8.8060 -27.2236 -14.5332 38.4835 -100.9869 25.5295 -24.3842 -150.0729 -0.0000 -45.8394 -2.0192 -8.3266 -13.6830 32.8623 0.0000 24.3270 13.1237 -10.9741 -6.9633 -16.3055 47.4305 86.4926 16.4362 0.0000 -3.5286 1.1530 -10.8569 6.0989 33.1476 -0.0000 -26.2537 2.0964 11.4352 2.9582 -3.7493 0.0000 -0.0000 -14.5353 21.9425 -0.0887 5.2716 -0.0000 -0.0000 -3.7106 8.0322 1.1576 0.6105 -0.0000 -0.0000 -7.5465 -21.5641 16.6338 8.5894 -0.0000 -0.0000
1.5149 31.9455 -6.5569 5.8823 -19.9565 -2.2598 -6.8742 4.2725 4.3222 -6.4768 32.3643 8.7929 -27.3097 -14.4111 38.5334 -101.7168 25.6087 -24.4765 -151.1038 0.0000 -47.0447 -2.4323 -9.1868 -14.8989 32.8623 0.0000 24.3270 13.1023 -10.9417 -6.9299 -16.2974 47.4582 86.5264 16.4322 0.0000 -3.5120 1.1463 -10.8439 6.0712 33.1476 -0.0000 -26.2537 2.0813 11.4613 2.9472 -3.7482 0.0000 -0.0000 -14.5404 21.9475 -0.0842 5.2974 -0.0000 -0.0000 -3.7326 8.0702 1.1521 0.6140 -0.0000 -0.0000 -7.5531 -21.5837 16.6268 8.5895 -0.0000 -0.0000
1.5157 31.9455 -6.5573 5.9109 -19.9828 -2.2508 -6.9015 4.2885 4.3673 -6.3375 32.6104 8.7093 -27.5081 -14.3393 38.4409 -102.3147 25.5627 -24.6261 -151.9397 -0.0000 -48.2136 -2.9397 -9.9186 -16.6011 32.8623 0.0000 24.3270 13.0811 -10.9367 -6.9218 -16.3774 47.4898 86.6188 16.3599 0.0000 -3.5053 1.1379 -10.7561 6.0750 33.1476 -0.0000 -26.2537 2.0510 11.4680 2.9472 -3.7349 0.0000 -0.0000 -14.5538 21.9659 -0.0641 5.2901 -0.0000 -0.0000 -3.7790 8.0639 1.1574 0.6419 -0.0000 -0.0000 -7.5615 -21.5565 16.5936 8.5432 -0.0000 -0.0000
1.5162 31.9437 -6.5557 5.9265 -20.0012 -2.2397 -6.8821 4.2531 4.3905 -6.3306 32.8711 8.6596 -28.1846 -14.5890 38.1774 -102.3933 25.4341 -24.7538 -152.5070 0.0000 -49.2762 -3.3776 -10.2863 -18.2891 32.8623 0.0000 24.3270 13.0462 -10.8946 -6.9161 -16.4358 47.5156 86.6947 16.3238 0.0000 -3.5146 1.1412 -10.6801 6.1353 33.1476 -0.0000 -26.2537 2.0362 11.4873 2.9389 -3.7232 0.0000 -0.0000 -14.5713 21.9641 -0.0533 5.2711 -0.0000 -0.0000 -3.8026 8.0621 1.1535 0.6637 -0.0000 -0.0000 -7.5874 -21.5408 16.5879 8.5447 -0.0000 -0.0000
